Coordinates
version=1
nRows=12
nColumns=24
inDegrees=yes

Units are S.I. units (second, meters, Newtons, ...)
If the header above contains a line with 'inDegrees', this indicates whether rotational values are in degrees (yes) or radians (no).

endheader
time	pelvis_tilt	pelvis_list	pelvis_rotation	pelvis_tx	pelvis_ty	pelvis_tz	hip_flexion_r	hip_adduction_r	hip_rotation_r	knee_angle_r	ankle_angle_r	subtalar_angle_r	mtp_angle_r	hip_flexion_l	hip_adduction_l	hip_rotation_l	knee_angle_l	ankle_angle_l	subtalar_angle_l	mtp_angle_l	lumbar_extension	lumbar_bending	lumbar_rotation
     19.52000000	    -14.04646294	     -5.37861454	      4.41429845	     -0.27589047	      0.72557778	      0.07374630	     67.31524981	    -16.44840381	    -18.20611986	    -89.07911459	     22.04407280	      4.02155984	      0.00000000	     76.00178152	    -30.66397488	      6.31477806	    -90.46295790	      5.50218248	     40.10540427	      0.00000000	    -55.82373779	      2.14842475	      5.88410024
     19.53000000	    -14.07095355	     -5.35873146	      4.47690375	     -0.27532803	      0.72731511	      0.07410978	     67.11915881	    -16.35106868	    -18.24306842	    -88.77479806	     21.94894773	      3.80647158	      0.00000000	     75.69232169	    -30.68859135	      6.08303730	    -90.07365641	      5.50245541	     40.11888653	      0.00000000	    -55.57226745	      2.17876652	      5.87394514
     19.54000000	    -14.07910090	     -5.34757305	      4.53252682	     -0.27476699	      0.72913349	      0.07448823	     66.89835302	    -16.23297162	    -18.28543456	    -88.45401708	     21.84609582	      3.58044661	      0.00000000	     75.36468068	    -30.72288305	      5.85507977	    -89.67799235	      5.50705128	     40.11662338	      0.00000000	    -55.34202587	      2.20650570	      5.87219332
     19.55000000	    -14.07869405	     -5.34026939	      4.58548352	     -0.27420905	      0.73101515	      0.07486476	     66.66466032	    -16.10052578	    -18.32398253	    -88.12135731	     21.73818091	      3.34507490	      0.00000000	     75.02325899	    -30.75516026	      5.62765084	    -89.27586916	      5.51496121	     40.09749165	      0.00000000	    -55.12100134	      2.23538792	      5.87697616
     19.56000000	    -14.07747610	     -5.33560804	      4.63918814	     -0.27364819	      0.73294379	      0.07523765	     66.42539563	    -15.96244520	    -18.36035981	    -87.77805644	     21.62082706	      3.10888447	      0.00000000	     74.67611753	    -30.78437625	      5.39722451	    -88.86692772	      5.52554535	     40.06105636	      0.00000000	    -54.90307294	      2.26510888	      5.88284124
     19.57000000	    -14.08398765	     -5.33091785	      4.69630670	     -0.27308452	      0.73489541	      0.07559504	     66.19101193	    -15.82631125	    -18.39162278	    -87.42742670	     21.49943216	      2.87954276	      0.00000000	     74.33079679	    -30.80256851	      5.16406662	    -88.45088866	      5.53685918	     40.00960554	      0.00000000	    -54.67552208	      2.29839869	      5.88650119
     19.58000000	    -14.10123760	     -5.32630336	      4.75826518	     -0.27251880	      0.73685613	      0.07593333	     65.96446889	    -15.69534480	    -18.41843178	    -87.07075135	     21.37705648	      2.66107964	      0.00000000	     73.99180453	    -30.80929237	      4.92833219	    -88.02801687	      5.54671432	     39.94736956	      0.00000000	    -54.43153531	      2.33581428	      5.88593060
     19.59000000	    -14.13153092	     -5.32130592	      4.82450444	     -0.27194357	      0.73882429	      0.07625505	     65.74280641	    -15.57131308	    -18.44457437	    -86.70299803	     21.25728392	      2.45318796	      0.00000000	     73.66147802	    -30.80692550	      4.69060731	    -87.59870476	      5.55408999	     39.88013074	      0.00000000	    -54.17408375	      2.37486255	      5.88029201
     19.60000000	    -14.17235446	     -5.31878568	      4.89335439	     -0.27136430	      0.74079563	      0.07656393	     65.52335149	    -15.45234732	    -18.47446879	    -86.32519671	     21.14562806	      2.25936788	      0.00000000	     73.33971290	    -30.79745070	      4.45552031	    -87.16176350	      5.55683739	     39.81395324	      0.00000000	    -53.89865581	      2.41685837	      5.86957763
     19.61000000	    -14.22484135	     -5.31828268	      4.96389357	     -0.27078723	      0.74276700	      0.07687139	     65.30666833	    -15.33535916	    -18.50712490	    -85.93520485	     21.04860090	      2.08044909	      0.00000000	     73.02677783	    -30.77900805	      4.22903566	    -86.71489187	      5.55432407	     39.75337814	      0.00000000	    -53.60587479	      2.46323549	      5.85614829
     19.62000000	    -14.28455340	     -5.32122916	      5.03361947	     -0.27020262	      0.74475048	      0.07716347	     65.08226595	    -15.22334305	    -18.55206650	    -85.52726229	     20.95880800	      1.91484727	      0.00000000	     72.72101306	    -30.76083776	      4.00402791	    -86.26396861	      5.54684546	     39.70216159	      0.00000000	    -53.30085877	      2.50651368	      5.83842741
     19.63000000	    -14.34983061	     -5.32343788	      5.10137783	     -0.26962146	      0.74674234	      0.07745914	     64.85539474	    -15.11283594	    -18.60204299	    -85.10814648	     20.88417491	      1.75751784	      0.00000000	     72.41506388	    -30.73740408	      3.78369744	    -85.80297024	      5.53472239	     39.66008183	      0.00000000	    -52.98421381	      2.55006963	      5.81940266
